<svg xmlns="http://www.w3.org/2000/svg" version="1.1" xmlns:xlink="http://www.w3.org/1999/xlink" xmlns:svgjs="http://svgjs.dev/svgjs" width="100%" height="100%" viewBox="0 0 1000 600"><rect width="1000" height="600" x="0" y="0" fill="#ac485a"/><g><circle r="166.66666666666666" cx="558.0852457682291" cy="580.3072603390194" fill="#3d155f" transform="matrix(0.31935137824774473,0,0,0.3193513782477448,0,114.67807780969208)"/><path d="M493.2465306420495 654.1183221048641L477.0990652042615 654.1183221048641L477.0990652042615 506.80034975463366L493.2465306420495 506.80034975463366L493.2465306420495 654.1183221048641ZM561.817959213478 655.30726219703L561.817959213478 655.30726219703Q556.2327057572568 655.30726219703 550.7580513793766 655.0584142707626Q545.2833970014965 654.8095663444954 539.4216458494227 654.3671700311313Q533.559894697349 653.9247737177673 526.9792495360587 653.233529478136L526.9792495360587 653.233529478136L526.9792495360587 509.17822993896544Q532.9515997664735 507.9892898467995 539.4769453885933 507.10449722007144Q546.0022910107131 506.1920548237581 552.6105859415886 505.74965851039406Q559.2188808724643 505.30726219702996 565.4953785683167 505.30726219702996L565.4953785683167 505.30726219702996Q601.9377748816808 505.30726219702996 620.4907702733858 523.7220087408087Q639.0714154346762 542.1367552845875 639.0714154346762 580.4593359297487L639.0714154346762 580.4593359297487Q639.0714154346762 606.4501193398871 630.3893877849066 622.9570317822834Q621.7350099047223 639.491593994265 604.5645029922798 647.3994280956474Q587.3939960798375 655.30726219703 561.817959213478 655.30726219703ZM564.9976827157822 641.4823774044032L564.9976827157822 641.4823774044032Q584.2142725775334 641.4823774044032 596.9608163563353 635.2611792477212Q609.707360135137 629.0399810910392 616.0115076005748 615.5468935334354Q622.3433048355978 602.0538059758317 622.3433048355978 580.3487368514077L622.3433048355978 580.3487368514077Q622.3433048355978 558.9478151924217 616.1221066789158 545.4270778652327Q609.9009085222337 531.8786907684585 597.4032126696993 525.4639442246797Q584.9055168171647 519.049197680901 565.9930744208514 519.049197680901L565.9930744208514 519.049197680901Q560.6290191213121 519.049197680901 554.8502172779943 519.5468935334354Q549.0714154346763 520.0445893859701 543.0990652042615 521.0399810910392L543.0990652042615 521.0399810910392L543.0990652042615 640.2934373122373Q548.2695721167038 640.8740824735276 553.4953785683167 641.1782299389654Q558.7211850199296 641.4823774044032 564.9976827157822 641.4823774044032Z " fill="#df678c" transform="matrix(0.31935137824774473,0,0,0.3193513782477448,0,114.67807780969208)"/><path d="M824.2000308469835 653.8171943061093L808.0852407409438 653.8171943061093L808.0852407409438 506.7973284071726L824.2000308469835 506.7973284071726L824.2000308469835 653.8171943061093ZM873.0686837199221 653.8171943061093L858.0576463608716 653.8171943061093L858.0576463608716 535.6052751035859L874.2552179229352 535.6052751035859L944.2883297193882 635.246554338019L941.0046652970959 635.246554338019L941.0046652970959 535.6052751035859L956.0984841121706 535.6052751035859L956.0984841121706 653.8171943061093L939.8181310940827 653.8171943061093L869.7850192976298 554.175915071676L873.0686837199221 554.175915071676L873.0686837199221 653.8171943061093ZM1005.0775122598081 653.8171943061093L990.0940687194322 653.8171943061093L990.0940687194322 535.6052751035859L1006.2640464628214 535.6052751035859L1076.2971582592743 635.246554338019L1073.0410876556566 635.246554338019L1073.0410876556566 535.6052751035859L1088.1349064707315 535.6052751035859L1088.1349064707315 653.8171943061093L1071.8269596339687 653.8171943061093L1001.7938478375158 554.175915071676L1005.0775122598081 554.175915071676L1005.0775122598081 653.8171943061093ZM1167.9086362593623 655.3072605145444L1167.9086362593623 655.3072605145444Q1151.7938461533226 655.3072605145444 1139.8457226671667 648.9606822193575Q1127.8700053623359 642.586510105496 1121.2474888804018 629.2311018669288Q1114.6525662171425 615.8756936283619 1114.6525662171425 594.8216099795463L1114.6525662171425 594.8216099795463Q1114.6525662171425 573.657151056032 1121.3026765177513 560.2465551801156Q1127.95278681836 546.8359593041992 1139.9285041231908 540.4617871903375Q1151.9042214280216 534.1152088951507 1167.9086362593623 534.1152088951507L1167.9086362593623 534.1152088951507Q1183.8854572720284 534.1152088951507 1195.9163622142087 540.4617871903375Q1207.9196733377141 546.8359593041992 1214.5421898196482 560.2465551801156Q1221.1371124829077 573.657151056032 1221.1371124829077 594.8216099795463L1221.1371124829077 594.8216099795463Q1221.1371124829077 615.8756936283619 1214.4870021822987 629.2311018669288Q1207.83689188169 642.586510105496 1195.8059869395097 648.9606822193575Q1183.8026758160042 655.3072605145444 1167.9086362593623 655.3072605145444ZM1167.9086362593623 642.2829781000739L1167.9086362593623 642.2829781000739Q1179.0289451852766 642.2829781000739 1187.3070907876943 637.6748103813948Q1195.6128302087866 633.0666426627158 1200.1934041087911 622.7189606596937Q1204.7463841901208 612.3988724753465 1204.7463841901208 595.0975481662936L1204.7463841901208 595.0975481662936Q1204.7463841901208 577.4375042144695 1200.1934041087911 566.8966654807244Q1195.6128302087866 556.3558267469793 1187.3070907876943 551.7476590283002Q1179.0289451852766 547.139491309621 1167.9086362593623 547.139491309621L1167.9086362593623 547.139491309621Q1156.7607335147734 547.139491309621 1148.5377755497052 551.6924713909507Q1140.2872237659624 556.2730452909552 1135.7066498659578 566.648321112652Q1131.1536697846282 577.0235969343487 1131.1536697846282 594.3249212434014L1131.1536697846282 594.3249212434014Q1131.1536697846282 611.9849651952256 1135.6514622286084 622.5258039289706Q1140.1768484912634 633.0666426627158 1148.4274002750062 637.6748103813948Q1156.6779520587493 642.2829781000739 1167.9086362593623 642.2829781000739ZM1296.24748691551 653.8171943061093L1272.7927410419934 653.8171943061093L1228.7806002558066 535.6052751035859L1245.5852358287143 535.6052751035859L1286.506868923332 647.1670840055003L1283.1404230450155 647.1670840055003L1324.365588145055 535.6052751035859L1340.259627701697 535.6052751035859L1296.24748691551 653.8171943061093ZM1352.7596275613473 653.8171943061093L1336.9759632794046 653.8171943061093L1381.1812607963145 535.6052751035859L1404.0289426589873 535.6052751035859L1448.4273969066203 653.8171943061093L1432.1470438885324 653.8171943061093L1391.3081922499387 542.5589174096167L1393.6812606559652 542.5589174096167L1352.7596275613473 653.8171943061093ZM1423.8964921047893 616.9518525566762L1361.2033360758135 616.9518525566762L1364.873313959552 604.2586959663024L1420.309295677075 604.2586959663024L1423.8964921047893 616.9518525566762ZM1494.9229813735326 653.8171943061093L1478.8357850861676 653.8171943061093L1478.8357850861676 548.8227142487793L1437.3898694367301 548.8227142487793L1437.3898694367301 535.6052751035859L1536.3413032042952 535.6052751035859L1536.3413032042952 548.8227142487793L1494.9229813735326 548.8227142487793L1494.9229813735326 653.8171943061093ZM1570.916358003726 653.8171943061093L1554.829161716361 653.8171943061093L1554.829161716361 535.6052751035859L1570.916358003726 535.6052751035859L1570.916358003726 653.8171943061093ZM1656.6503526260976 653.8171943061093L1633.1956067525812 653.8171943061093L1589.1834659663941 535.6052751035859L1605.9881015393019 535.6052751035859L1646.9097346339197 647.1670840055003L1643.5156949369284 647.1670840055003L1684.740860036968 535.6052751035859L1700.63489959361 535.6052751035859L1656.6503526260976 653.8171943061093ZM1799.2000198997287 653.8171943061093L1718.9296013749529 653.8171943061093L1718.9296013749529 535.6052751035859L1798.2894238834629 535.6052751035859L1798.2894238834629 548.2156502379353L1734.7132656568956 548.2156502379353L1734.7132656568956 641.2068191717597L1799.2000198997287 641.2068191717597L1799.2000198997287 653.8171943061093ZM1790.03887209972 599.5677467915991L1728.863376097854 599.5677467915991L1728.863376097854 587.0677469319487L1790.03887209972 587.0677469319487L1790.03887209972 599.5677467915991ZM1906.484786907061 655.0037285091223L1906.484786907061 655.0037285091223Q1900.9108355347664 655.0037285091223 1895.4472594371707 654.75538414105Q1889.9836833395755 654.5070397729774 1884.1337937805336 654.0655386741817Q1878.256310402817 653.6240375753862 1871.716575376907 652.9341921085179L1871.716575376907 652.9341921085179L1871.716575376907 509.170396813199Q1877.6768402106475 507.9838626101858 1884.1613875992082 507.10086041259456Q1890.6735288064435 506.19026439632864 1897.2960452883774 505.74876329753306Q1903.8909679516366 505.3072621987375 1910.1547647907994 505.3072621987375L1910.1547647907994 505.3072621987375Q1946.4958239854125 505.3072621987375 1965.0388701348281 523.6847454361045Q1983.5543224655687 542.0622286734716 1983.5543224655687 580.307261356641L1983.5543224655687 580.307261356641Q1983.5543224655687 606.2454509108827 1974.91745722038 622.7189606596937Q1966.2805919751906 639.2200642271796 1949.1448305781867 647.1118963681508Q1932.0090691811818 655.0037285091223 1906.484786907061 655.0037285091223ZM1909.6580760546547 641.2068191717597L1909.6580760546547 641.2068191717597Q1928.8357800335882 641.2068191717597 1941.528936623962 634.9982099699464Q1954.2496870330103 628.7896007681334 1960.5686715095228 615.3238172548674Q1966.8600621673602 601.8580337416013 1966.8600621673602 580.196886081942L1966.8600621673602 580.196886081942Q1966.8600621673602 558.8392704277046 1960.6514529655467 545.3458930957639Q1954.4428437637337 531.8249219451485 1941.9980315414325 525.4231560126123Q1929.5256255004567 519.0213900800759 1910.6514535269446 519.0213900800759L1910.6514535269446 519.0213900800759Q1905.2706588853732 519.0213900800759 1899.5311446010303 519.518078816221Q1893.7640364980127 520.014767552366 1887.8037716642718 521.0081450246562L1887.8037716642718 521.0081450246562L1887.8037716642718 640.0202849687466Q1892.9638157564457 640.5997551609157 1898.1790474859688 640.9032871663378Q1903.3942792154915 641.2068191717597 1909.6580760546547 641.2068191717597ZM2053.0907455258766 653.8171943061093L2037.003549238512 653.8171943061093L2037.003549238512 595.4010801717156L2040.480370391527 607.0180778337751L1991.4185607878655 535.6052751035859L2008.8854480089665 535.6052751035859L2047.930701433703 592.1174157494233L2042.7706573415292 592.1174157494233L2081.3192220301207 535.6052751035859L2097.7099503229074 535.6052751035859L2049.613924372861 607.0180778337751L2053.0907455258766 595.5114554464146L2053.0907455258766 653.8171943061093ZM2127.897587953057 653.8171943061093L2112.8865505940066 653.8171943061093L2112.8865505940066 535.6052751035859L2129.0841221560704 535.6052751035859L2199.117233952523 635.246554338019L2195.833569530231 635.246554338019L2195.833569530231 535.6052751035859L2210.9549821639803 535.6052751035859L2210.9549821639803 653.8171943061093L2194.647035327218 653.8171943061093L2124.6139235307646 554.175915071676L2127.897587953057 554.175915071676L2127.897587953057 653.8171943061093ZM2246.799352622449 653.8171943061093L2231.015688340505 653.8171943061093L2275.220985857416 535.6052751035859L2298.0686677200883 535.6052751035859L2342.467121967721 653.8171943061093L2326.186768949633 653.8171943061093L2285.34791731104 542.5589174096167L2287.7209857170665 542.5589174096167L2246.799352622449 653.8171943061093ZM2317.9362171658904 616.9518525566762L2255.2430611369145 616.9518525566762L2258.913039020653 604.2586959663024L2314.3490207381765 604.2586959663024L2317.9362171658904 616.9518525566762ZM2377.7320222340204 653.8171943061093L2362.8313601496684 653.8171943061093L2362.8313601496684 535.6052751035859L2381.705532123181 535.6052751035859L2425.8004543653924 625.0092476096959L2422.8203219485213 625.0092476096959L2466.4461492732626 535.6052751035859L2485.4031027027986 535.6052751035859L2485.4031027027986 653.8171943061093L2470.4196591624222 653.8171943061093L2470.4196591624222 549.2090277102254L2474.393169051583 549.2090277102254L2430.9880922762404 637.2333092825993L2417.163589120203 637.2333092825993L2372.958291603293 549.3194029849244L2377.7320222340204 549.3194029849244L2377.7320222340204 653.8171943061093ZM2535.8721970588713 653.8171943061093L2519.785000771506 653.8171943061093L2519.785000771506 535.6052751035859L2535.8721970588713 535.6052751035859L2535.8721970588713 653.8171943061093ZM2620.612814208953 655.3072605145444L2620.612814208953 655.3072605145444Q2602.7320197077306 655.3072605145444 2589.6801434745857 649.3469956808037Q2576.600673422766 643.3867308470631 2569.5090620233614 630.11410406452Q2562.3898568052828 616.869071100652 2562.3898568052828 594.9043914355707L2562.3898568052828 594.9043914355707Q2562.3898568052828 573.8503077867551 2569.5090620233614 560.3845242734892Q2576.600673422766 546.9187407602233 2589.928487842658 540.5169748276869Q2603.228708443876 534.1152088951507 2621.992505142689 534.1152088951507L2621.992505142689 534.1152088951507Q2629.1668979981177 534.1152088951507 2635.9549773921 534.9154296367177Q2642.770650604757 535.7156503782847 2649.03444744392 537.3988733174431L2649.03444744392 537.3988733174431L2649.03444744392 550.8094691933595Q2642.577493874034 549.1262462542013 2636.1205403041486 548.3260255126343Q2629.663586734263 547.5258047710672 2622.903101158955 547.5258047710672L2622.903101158955 547.5258047710672Q2608.692284541471 547.5258047710672 2598.951666549294 552.1339724897464Q2589.2110485571156 556.7697340271002 2584.2441611956647 567.1450098487969Q2579.2772738342146 577.5202856704936 2579.2772738342146 594.7112347048476L2579.2772738342146 594.7112347048476Q2579.2772738342146 612.4816539313706 2584.299348833014 622.8293359343927Q2589.321423831814 633.14942411874 2598.8688850932695 637.5368412880212Q2608.3887525360497 641.896664638628 2621.9097236866646 641.896664638628L2621.9097236866646 641.896664638628Q2628.752990717997 641.896664638628 2635.265131925232 640.8480995289883Q2641.7772731324676 639.7995344193487 2649.03444744392 637.6196227440455L2649.03444744392 637.6196227440455L2649.03444744392 651.0302186199619Q2642.8534320607814 653.0169735645422 2635.6514453866785 654.1759139488806Q2628.4494587125746 655.3072605145444 2620.612814208953 655.3072605145444ZM2694.23312243312 655.3072605145444L2694.23312243312 655.3072605145444Q2686.479259385522 655.3072605145444 2678.17351996443 654.1207263115311Q2669.8953743620123 652.9341921085179 2662.7209815065835 650.6439051585157L2662.7209815065835 650.6439051585157L2662.7209815065835 637.4264660133224Q2668.1017761481553 639.0269074964565 2673.6205398831007 640.1030664247708Q2679.111709799371 641.2068191717597 2684.3821291662425 641.7586955452541Q2689.652548533116 642.2829781000739 2694.3159038891445 642.2829781000739L2694.3159038891445 642.2829781000739Q2704.6635858921663 642.2829781000739 2711.2585085554256 639.9650973313971Q2717.853431218685 637.6196227440455 2720.9991265476037 633.0942364813905Q2724.1172280578476 628.5964440374103 2724.1172280578476 622.1394904675244L2724.1172280578476 622.1394904675244Q2724.1172280578476 616.6759143699289 2721.992504019894 612.8955612114914Q2719.8401861632656 609.1152080530542 2714.6801420710917 606.4386076416058Q2709.520097978918 603.7620072301575 2700.469325453608 601.6648770108784L2700.469325453608 601.6648770108784L2694.23312243312 600.285186077142Q2676.4351093879222 596.3116761879817 2668.432901972252 588.5026255030343Q2660.4582883752564 580.693574818087 2660.4582883752564 567.5037294915684L2660.4582883752564 567.5037294915684Q2660.4582883752564 557.5699547686672 2665.4527695553816 550.064436089142Q2670.474844554182 542.5589174096167 2680.7673389198544 538.3370631523837Q2691.032239466852 534.1152088951507 2706.84349756747 534.1152088951507L2706.84349756747 534.1152088951507Q2713.9902966042227 534.1152088951507 2721.1922832783266 534.9982110927419Q2728.3942699524305 535.9088071090079 2734.2441595114715 537.4816547734672L2734.2441595114715 537.4816547734672L2734.2441595114715 550.8094691933595Q2727.594049210863 548.9054957048035 2720.805969816881 547.9673058698628Q2713.9902966042227 547.0291160349221 2707.036654298193 547.0291160349221L2707.036654298193 547.0291160349221Q2696.1095021030014 547.0291160349221 2689.3490165276935 549.4021844409485Q2682.5885309523865 551.8028466656497 2679.4704294421417 556.1626700162562Q2676.352327931898 560.5500871855376 2676.352327931898 566.7035087500013L2676.352327931898 566.7035087500013Q2676.352327931898 574.9540605337443 2681.1536523813 579.4518529777245Q2685.9825706493775 583.9772392403793 2699.2827912505945 587.1505283879728L2699.2827912505945 587.1505283879728L2705.5465880897573 588.5578131403838Q2717.7706497626605 591.2344135518322 2725.303762260861 595.5114554464146Q2732.8644685777354 599.7884973409971 2736.3964773681 606.1350756361837Q2739.9284861584647 612.4816539313706 2739.9284861584647 621.2288944512586L2739.9284861584647 621.2288944512586Q2739.9284861584647 631.6593579103048 2734.7408482476167 639.2752518645289Q2729.580804155443 646.8635520000785 2719.3986850644696 651.0854062573114Q2709.2165659734956 655.3072605145444 2694.23312243312 655.3072605145444Z " fill="#3d155f" transform="matrix(0.31935137824774473,0,0,0.3193513782477448,0,114.67807780969208)"/></g></svg>